<svg xmlns="http://www.w3.org/2000/svg" width="26.747" height="24" viewBox="0 0 26.747 24">
  <path id="table_chart_view_FILL0_wght200_GRAD0_opsz24" d="M126.1-776l-.981-.981,8.608-8.616,4.853,4.853,7.176-7.176.989.989-8.165,8.157-4.853-4.853Zm-3.861-1.813a2.17,2.17,0,0,1-1.6-.641,2.17,2.17,0,0,1-.641-1.6V-797.76a2.17,2.17,0,0,1,.641-1.6,2.17,2.17,0,0,1,1.6-.641h17.707a2.17,2.17,0,0,1,1.6.641,2.17,2.17,0,0,1,.641,1.6v5.824h-20.8v11.883a.815.815,0,0,0,.267.587.816.816,0,0,0,.587.267Zm-.853-15.509H140.8v-4.437a.816.816,0,0,0-.267-.587.816.816,0,0,0-.587-.267l-.591-.535c-.213,0,2.192.624,2.015.8a45.821,45.821,0,0,0,.175,5.024Zm10,0-10-5.291Z" transform="translate(-120 800)" fill="#a876e2"/>
</svg>
