<svg xmlns="http://www.w3.org/2000/svg" width="10.8" height="12" viewBox="0 0 10.8 12">
  <path id="calendar_month_FILL0_wght400_GRAD0_opsz48" d="M120.9-868a.864.864,0,0,1-.63-.27.863.863,0,0,1-.27-.63v-9.3a.863.863,0,0,1,.27-.63.863.863,0,0,1,.63-.27h.975v-.9h.975v.9h5.1v-.9h.975v.9h.975a.863.863,0,0,1,.63.27.863.863,0,0,1,.27.63v9.3a.863.863,0,0,1-.27.63.864.864,0,0,1-.63.27Zm0-.9h9v-6.45h-9Zm0-7.35h9v-1.95h-9Zm0,0v0Zm4.5,3.45a.581.581,0,0,1-.428-.172.58.58,0,0,1-.173-.427.581.581,0,0,1,.173-.428A.581.581,0,0,1,125.4-874a.581.581,0,0,1,.427.172.581.581,0,0,1,.172.428.58.58,0,0,1-.172.427A.581.581,0,0,1,125.4-872.8Zm-2.4,0a.581.581,0,0,1-.428-.172.58.58,0,0,1-.172-.427.581.581,0,0,1,.172-.428A.581.581,0,0,1,123-874a.58.58,0,0,1,.427.172.581.581,0,0,1,.173.428.58.58,0,0,1-.173.427A.581.581,0,0,1,123-872.8Zm4.8,0a.581.581,0,0,1-.428-.172.58.58,0,0,1-.172-.427.581.581,0,0,1,.172-.428A.581.581,0,0,1,127.8-874a.581.581,0,0,1,.427.172.581.581,0,0,1,.173.428.58.58,0,0,1-.173.427A.581.581,0,0,1,127.8-872.8Zm-2.4,2.4a.581.581,0,0,1-.428-.172A.581.581,0,0,1,124.8-871a.58.58,0,0,1,.173-.427.58.58,0,0,1,.428-.173.58.58,0,0,1,.427.173A.58.58,0,0,1,126-871a.581.581,0,0,1-.172.428A.581.581,0,0,1,125.4-870.4Zm-2.4,0a.581.581,0,0,1-.428-.172A.581.581,0,0,1,122.4-871a.58.58,0,0,1,.172-.427A.58.58,0,0,1,123-871.6a.58.58,0,0,1,.427.173.58.58,0,0,1,.173.427.581.581,0,0,1-.173.428A.581.581,0,0,1,123-870.4Zm4.8,0a.581.581,0,0,1-.428-.172A.581.581,0,0,1,127.2-871a.58.58,0,0,1,.172-.427.58.58,0,0,1,.428-.173.58.58,0,0,1,.427.173.58.58,0,0,1,.173.427.581.581,0,0,1-.173.428A.581.581,0,0,1,127.8-870.4Z" transform="translate(-120 879.999)" fill="#898a8d"/>
</svg>
