<svg xmlns="http://www.w3.org/2000/svg" width="8.12" height="9.022" viewBox="0 0 8.12 9.022">
  <path id="calendar_month_FILL0_wght400_GRAD0_opsz48" d="M120.677-870.978a.649.649,0,0,1-.474-.2.649.649,0,0,1-.2-.474v-6.992a.649.649,0,0,1,.2-.474.649.649,0,0,1,.474-.2h.733V-880h.733v.677h3.834V-880h.733v.677h.733a.649.649,0,0,1,.474.2.649.649,0,0,1,.2.474v6.992a.649.649,0,0,1-.2.474.649.649,0,0,1-.474.2Zm0-.677h6.767v-4.85h-6.767Zm0-5.526h6.767v-1.466h-6.767Zm0,0v0Zm3.383,2.594a.437.437,0,0,1-.321-.13.436.436,0,0,1-.13-.321.437.437,0,0,1,.13-.322.436.436,0,0,1,.321-.13.436.436,0,0,1,.321.13.437.437,0,0,1,.13.322.436.436,0,0,1-.13.321A.437.437,0,0,1,124.06-874.587Zm-1.8,0a.437.437,0,0,1-.321-.13.436.436,0,0,1-.13-.321.437.437,0,0,1,.13-.322.436.436,0,0,1,.321-.13.436.436,0,0,1,.321.13.437.437,0,0,1,.13.322.436.436,0,0,1-.13.321A.437.437,0,0,1,122.256-874.587Zm3.609,0a.437.437,0,0,1-.321-.13.436.436,0,0,1-.13-.321.437.437,0,0,1,.13-.322.436.436,0,0,1,.321-.13.436.436,0,0,1,.321.13.437.437,0,0,1,.13.322.436.436,0,0,1-.13.321A.437.437,0,0,1,125.864-874.587Zm-1.8,1.8a.437.437,0,0,1-.321-.13.437.437,0,0,1-.13-.322.437.437,0,0,1,.13-.321.436.436,0,0,1,.321-.13.436.436,0,0,1,.321.13.436.436,0,0,1,.13.321.437.437,0,0,1-.13.322A.437.437,0,0,1,124.06-872.782Zm-1.8,0a.437.437,0,0,1-.321-.13.437.437,0,0,1-.13-.322.437.437,0,0,1,.13-.321.436.436,0,0,1,.321-.13.436.436,0,0,1,.321.13.436.436,0,0,1,.13.321.437.437,0,0,1-.13.322A.437.437,0,0,1,122.256-872.782Zm3.609,0a.437.437,0,0,1-.321-.13.437.437,0,0,1-.13-.322.437.437,0,0,1,.13-.321.436.436,0,0,1,.321-.13.436.436,0,0,1,.321.13.437.437,0,0,1,.13.321.437.437,0,0,1-.13.322A.437.437,0,0,1,125.864-872.782Z" transform="translate(-120 880)" fill="#757575"/>
</svg>
