<svg xmlns="http://www.w3.org/2000/svg" width="12" height="12" viewBox="0 0 12 12">
  <path id="linked_services_FILL0_wght300_GRAD0_opsz24" d="M69.9-895.8a2.009,2.009,0,0,1-1.333-.475,2.073,2.073,0,0,1-.716-1.2H64.136a2.031,2.031,0,0,1-.56,1.05,2.007,2.007,0,0,1-1.047.563v3.712a2.073,2.073,0,0,1,1.2.716A2.009,2.009,0,0,1,64.2-890.1a2.023,2.023,0,0,1-.614,1.485A2.023,2.023,0,0,1,62.1-888a2.023,2.023,0,0,1-1.485-.614A2.023,2.023,0,0,1,60-890.1a2.009,2.009,0,0,1,.475-1.333,2.073,2.073,0,0,1,1.2-.716v-3.712a2.075,2.075,0,0,1-1.2-.715A2,2,0,0,1,60-897.9a2.021,2.021,0,0,1,.615-1.485A2.017,2.017,0,0,1,62.1-900a2,2,0,0,1,1.326.475,2.075,2.075,0,0,1,.715,1.2h3.718a2.073,2.073,0,0,1,.716-1.2A2.009,2.009,0,0,1,69.9-900a2.022,2.022,0,0,1,1.482.616A2.021,2.021,0,0,1,72-897.9a2.019,2.019,0,0,1-.617,1.485A2.026,2.026,0,0,1,69.9-895.8Zm0,7.8a2.023,2.023,0,0,1-1.485-.614,2.018,2.018,0,0,1-.614-1.481,2.031,2.031,0,0,1,.614-1.485A2.016,2.016,0,0,1,69.9-892.2a2.016,2.016,0,0,1,1.485.618A2.031,2.031,0,0,1,72-890.094a2.018,2.018,0,0,1-.614,1.481A2.023,2.023,0,0,1,69.9-888Zm0-8.654a1.191,1.191,0,0,0,.878-.367,1.207,1.207,0,0,0,.363-.881,1.2,1.2,0,0,0-.363-.878,1.2,1.2,0,0,0-.878-.363,1.208,1.208,0,0,0-.881.363,1.191,1.191,0,0,0-.367.878,1.2,1.2,0,0,0,.367.881A1.2,1.2,0,0,0,69.9-896.653Zm-7.806,0a1.2,1.2,0,0,0,.882-.367,1.207,1.207,0,0,0,.363-.881,1.2,1.2,0,0,0-.363-.878,1.2,1.2,0,0,0-.882-.363,1.207,1.207,0,0,0-.873.363,1.185,1.185,0,0,0-.37.878,1.2,1.2,0,0,0,.37.881A1.2,1.2,0,0,0,62.1-896.653Zm7.806,7.8a1.185,1.185,0,0,0,.878-.37,1.207,1.207,0,0,0,.363-.874,1.2,1.2,0,0,0-.363-.882,1.2,1.2,0,0,0-.878-.363,1.208,1.208,0,0,0-.881.363,1.2,1.2,0,0,0-.367.882,1.2,1.2,0,0,0,.367.874A1.2,1.2,0,0,0,69.9-888.851Zm-7.806,0a1.189,1.189,0,0,0,.882-.37,1.207,1.207,0,0,0,.363-.874,1.2,1.2,0,0,0-.363-.882,1.2,1.2,0,0,0-.882-.363,1.207,1.207,0,0,0-.873.363,1.189,1.189,0,0,0-.37.882,1.2,1.2,0,0,0,.37.874A1.2,1.2,0,0,0,62.1-888.851ZM69.9-897.9ZM62.1-897.9ZM69.9-890.1ZM62.1-890.1Z" transform="translate(-60.002 899.999)" fill="#898a8d"/>
</svg>
