<svg xmlns="http://www.w3.org/2000/svg" width="18" height="18" viewBox="0 0 18 18">
  <g id="Group_499" data-name="Group 499" transform="translate(-394 -499)">
    <g id="Group_498" data-name="Group 498" transform="translate(0 -8)">
      <rect id="Rectangle_202" data-name="Rectangle 202" width="18" height="18" transform="translate(394 507)" fill="rgba(255,255,255,0)"/>
      <path id="linked_services_FILL0_wght300_GRAD0_opsz24" d="M73.2-894.4a2.679,2.679,0,0,1-1.778-.633,2.764,2.764,0,0,1-.955-1.594H65.514a2.708,2.708,0,0,1-.747,1.4,2.676,2.676,0,0,1-1.4.75v4.949a2.764,2.764,0,0,1,1.594.955A2.678,2.678,0,0,1,65.6-886.8a2.7,2.7,0,0,1-.818,1.98A2.7,2.7,0,0,1,62.8-884a2.7,2.7,0,0,1-1.98-.818A2.7,2.7,0,0,1,60-886.8a2.679,2.679,0,0,1,.633-1.778,2.764,2.764,0,0,1,1.594-.955v-4.949a2.767,2.767,0,0,1-1.594-.953A2.66,2.66,0,0,1,60-897.2a2.7,2.7,0,0,1,.82-1.98A2.69,2.69,0,0,1,62.793-900a2.66,2.66,0,0,1,1.768.633,2.767,2.767,0,0,1,.953,1.594h4.957a2.764,2.764,0,0,1,.955-1.594A2.678,2.678,0,0,1,73.2-900a2.7,2.7,0,0,1,1.976.822A2.7,2.7,0,0,1,76-897.2a2.691,2.691,0,0,1-.822,1.98A2.7,2.7,0,0,1,73.2-894.4Zm0,10.4a2.7,2.7,0,0,1-1.98-.818,2.691,2.691,0,0,1-.818-1.975,2.709,2.709,0,0,1,.818-1.98,2.689,2.689,0,0,1,1.98-.824,2.689,2.689,0,0,1,1.98.824,2.709,2.709,0,0,1,.818,1.98,2.691,2.691,0,0,1-.818,1.975A2.7,2.7,0,0,1,73.2-884Zm0-11.538a1.587,1.587,0,0,0,1.171-.489,1.61,1.61,0,0,0,.484-1.175,1.6,1.6,0,0,0-.484-1.171,1.6,1.6,0,0,0-1.171-.484,1.61,1.61,0,0,0-1.175.484,1.588,1.588,0,0,0-.489,1.171,1.6,1.6,0,0,0,.489,1.175A1.6,1.6,0,0,0,73.2-895.537Zm-10.408,0a1.594,1.594,0,0,0,1.176-.489,1.61,1.61,0,0,0,.484-1.175,1.6,1.6,0,0,0-.484-1.171,1.6,1.6,0,0,0-1.176-.484,1.608,1.608,0,0,0-1.165.484,1.58,1.58,0,0,0-.494,1.171,1.594,1.594,0,0,0,.494,1.175A1.6,1.6,0,0,0,62.8-895.537Zm10.408,10.4a1.579,1.579,0,0,0,1.171-.494,1.609,1.609,0,0,0,.484-1.165,1.6,1.6,0,0,0-.484-1.176,1.6,1.6,0,0,0-1.171-.484,1.61,1.61,0,0,0-1.175.484,1.594,1.594,0,0,0-.489,1.176,1.6,1.6,0,0,0,.489,1.165A1.594,1.594,0,0,0,73.2-885.134Zm-10.408,0a1.586,1.586,0,0,0,1.176-.494,1.609,1.609,0,0,0,.484-1.165,1.6,1.6,0,0,0-.484-1.176,1.6,1.6,0,0,0-1.176-.484,1.608,1.608,0,0,0-1.165.484,1.586,1.586,0,0,0-.494,1.176,1.593,1.593,0,0,0,.494,1.165A1.593,1.593,0,0,0,62.8-885.134ZM73.2-897.2ZM62.8-897.2ZM73.2-886.8ZM62.8-886.8Z" transform="translate(334.998 1407.999)" fill="#757575"/>
    </g>
  </g>
</svg>
