<svg xmlns="http://www.w3.org/2000/svg" width="36" height="36" viewBox="0 0 36 36">
  <path id="check_circle_FILL0_wght200_GRAD0_opsz24" d="M135.123-814.185l12.792-12.792-1.415-1.416-11.377,11.376-5.7-5.7-1.415,1.416ZM138.007-804a17.548,17.548,0,0,1-7.021-1.417,18.189,18.189,0,0,1-5.718-3.846,18.175,18.175,0,0,1-3.85-5.713A17.506,17.506,0,0,1,120-821.993a17.541,17.541,0,0,1,1.417-7.021,18.182,18.182,0,0,1,3.846-5.718,18.163,18.163,0,0,1,5.713-3.85A17.5,17.5,0,0,1,137.993-840a17.548,17.548,0,0,1,7.021,1.417,18.189,18.189,0,0,1,5.718,3.846,18.175,18.175,0,0,1,3.85,5.713A17.506,17.506,0,0,1,156-822.007a17.541,17.541,0,0,1-1.417,7.021,18.182,18.182,0,0,1-3.846,5.718,18.163,18.163,0,0,1-5.713,3.85A17.5,17.5,0,0,1,138.007-804ZM138-806a15.442,15.442,0,0,0,11.35-4.65A15.442,15.442,0,0,0,154-822a15.442,15.442,0,0,0-4.65-11.35A15.442,15.442,0,0,0,138-838a15.442,15.442,0,0,0-11.35,4.65A15.442,15.442,0,0,0,122-822a15.442,15.442,0,0,0,4.65,11.35A15.442,15.442,0,0,0,138-806ZM138-822Z" transform="translate(-120 840)" fill="#88a567"/>
</svg>
