<svg xmlns="http://www.w3.org/2000/svg" width="11.205" height="11.205" viewBox="0 0 11.205 11.205">
  <path id="schedule_FILL0_wght400_GRAD0_opsz48" d="M87.661-871.694l.63-.63-2.227-2.241v-2.815h-.84v3.151ZM85.6-868.8a5.42,5.42,0,0,1-2.171-.441,5.679,5.679,0,0,1-1.786-1.2,5.682,5.682,0,0,1-1.2-1.786A5.422,5.422,0,0,1,80-874.4a5.421,5.421,0,0,1,.441-2.171,5.685,5.685,0,0,1,1.2-1.786,5.686,5.686,0,0,1,1.786-1.2A5.424,5.424,0,0,1,85.6-880a5.424,5.424,0,0,1,2.171.441,5.686,5.686,0,0,1,1.786,1.2,5.686,5.686,0,0,1,1.2,1.786,5.421,5.421,0,0,1,.441,2.171,5.422,5.422,0,0,1-.441,2.171,5.682,5.682,0,0,1-1.2,1.786,5.679,5.679,0,0,1-1.786,1.2A5.42,5.42,0,0,1,85.6-868.8ZM85.6-874.4Zm0,4.762a4.585,4.585,0,0,0,3.362-1.4,4.585,4.585,0,0,0,1.4-3.362,4.584,4.584,0,0,0-1.4-3.361,4.584,4.584,0,0,0-3.362-1.4,4.584,4.584,0,0,0-3.362,1.4,4.584,4.584,0,0,0-1.4,3.361,4.585,4.585,0,0,0,1.4,3.362A4.585,4.585,0,0,0,85.6-869.635Z" transform="translate(-80 880)" fill="#757575"/>
</svg>
