<svg xmlns="http://www.w3.org/2000/svg" width="16" height="16" viewBox="0 0 16 16">
  <path id="schedule_FILL0_wght400_GRAD0_opsz48" d="M90.94-868.14l.9-.9-3.18-3.2v-4.02h-1.2v4.5ZM88-864a7.741,7.741,0,0,1-3.1-.63,8.115,8.115,0,0,1-2.55-1.72,8.115,8.115,0,0,1-1.72-2.55A7.741,7.741,0,0,1,80-872a7.74,7.74,0,0,1,.63-3.1,8.114,8.114,0,0,1,1.72-2.55,8.115,8.115,0,0,1,2.55-1.72A7.741,7.741,0,0,1,88-880a7.741,7.741,0,0,1,3.1.63,8.115,8.115,0,0,1,2.55,1.72,8.113,8.113,0,0,1,1.72,2.55A7.74,7.74,0,0,1,96-872a7.741,7.741,0,0,1-.63,3.1,8.115,8.115,0,0,1-1.72,2.55,8.115,8.115,0,0,1-2.55,1.72A7.741,7.741,0,0,1,88-864ZM88-872Zm0,6.8a6.546,6.546,0,0,0,4.8-2,6.546,6.546,0,0,0,2-4.8,6.546,6.546,0,0,0-2-4.8,6.546,6.546,0,0,0-4.8-2,6.546,6.546,0,0,0-4.8,2,6.546,6.546,0,0,0-2,4.8,6.546,6.546,0,0,0,2,4.8A6.546,6.546,0,0,0,88-865.2Z" transform="translate(-80 880)" fill="#757575"/>
</svg>
