<svg xmlns="http://www.w3.org/2000/svg" width="14" height="14" viewBox="0 0 14 14">
  <path id="cancel_FILL0_wght200_GRAD0_opsz24" d="M124.2-829.65l2.8-2.8,2.8,2.8.55-.55-2.8-2.8,2.8-2.8-.55-.55-2.8,2.8-2.8-2.8-.55.55,2.8,2.8-2.8,2.8ZM127-826a6.822,6.822,0,0,1-2.73-.551,7.075,7.075,0,0,1-2.224-1.5,7.067,7.067,0,0,1-1.5-2.222A6.809,6.809,0,0,1,120-833a6.823,6.823,0,0,1,.551-2.73,7.075,7.075,0,0,1,1.5-2.224,7.065,7.065,0,0,1,2.222-1.5A6.808,6.808,0,0,1,127-840a6.821,6.821,0,0,1,2.73.551,7.075,7.075,0,0,1,2.224,1.5,7.065,7.065,0,0,1,1.5,2.222A6.808,6.808,0,0,1,134-833a6.822,6.822,0,0,1-.551,2.73,7.074,7.074,0,0,1-1.5,2.224,7.067,7.067,0,0,1-2.222,1.5A6.809,6.809,0,0,1,127-826Zm0-.778a6.005,6.005,0,0,0,4.414-1.808A6.005,6.005,0,0,0,133.222-833a6.005,6.005,0,0,0-1.808-4.414A6.005,6.005,0,0,0,127-839.222a6.005,6.005,0,0,0-4.414,1.808A6.005,6.005,0,0,0,120.778-833a6.005,6.005,0,0,0,1.808,4.414A6.005,6.005,0,0,0,127-826.778ZM127-833Z" transform="translate(-120 840)" fill="#898a8d"/>
</svg>
