<svg xmlns="http://www.w3.org/2000/svg" width="20" height="20" viewBox="0 0 20 20">
  <g id="Group_405" data-name="Group 405" transform="translate(-471 -439)">
    <rect id="Rectangle_186" data-name="Rectangle 186" width="20" height="20" transform="translate(471 439)" fill="rgba(255,255,255,0)"/>
    <path id="space_dashboard_FILL0_wght200_GRAD0_opsz24" d="M162.019-780a1.956,1.956,0,0,1-1.441-.578,1.956,1.956,0,0,1-.578-1.441v-15.962a1.956,1.956,0,0,1,.578-1.441,1.956,1.956,0,0,1,1.441-.578h15.962a1.956,1.956,0,0,1,1.441.578,1.956,1.956,0,0,1,.578,1.441v15.962a1.956,1.956,0,0,1-.578,1.441,1.956,1.956,0,0,1-1.441.578Zm0-1.25h7.356v-17.5h-7.356a.735.735,0,0,0-.529.24.735.735,0,0,0-.24.529v15.962a.735.735,0,0,0,.24.529A.735.735,0,0,0,162.019-781.25Zm8.606,0h7.356a.735.735,0,0,0,.529-.24.735.735,0,0,0,.24-.529V-790h-8.125Zm0-10h8.125v-6.731a.735.735,0,0,0-.24-.529.735.735,0,0,0-.529-.24h-7.356Z" transform="translate(311 1239)" fill="#f2f2f2"/>
  </g>
</svg>
