<svg xmlns="http://www.w3.org/2000/svg" width="24" height="24" viewBox="0 0 24 24">
  <g id="Group_412" data-name="Group 412" transform="translate(-29 -26)">
    <rect id="Rectangle_187" data-name="Rectangle 187" width="24" height="24" transform="translate(29 26)" fill="#f4f4f4"/>
    <path id="package_2_FILL0_wght200_GRAD0_opsz24" d="M170.108-813.758v-10.009l-8.76-5.072v9.543a.77.77,0,0,0,.1.389.892.892,0,0,0,.311.311Zm1.348,0L179.8-818.6a.892.892,0,0,0,.311-.311.77.77,0,0,0,.1-.389v-9.543l-8.76,5.072Zm-1.762,1.312-8.6-4.958a2.123,2.123,0,0,1-.8-.8,2.148,2.148,0,0,1-.289-1.089v-9.73a2.148,2.148,0,0,1,.289-1.089,2.123,2.123,0,0,1,.8-.8l8.6-4.958a2.154,2.154,0,0,1,1.089-.293,2.154,2.154,0,0,1,1.089.293l8.6,4.958a2.123,2.123,0,0,1,.8.8,2.148,2.148,0,0,1,.289,1.089v9.73a2.148,2.148,0,0,1-.289,1.089,2.123,2.123,0,0,1-.8.8l-8.6,4.958a2.154,2.154,0,0,1-1.089.293A2.154,2.154,0,0,1,169.693-812.447Zm6.091-15.38,3.657-2.1L171.2-834.7a.777.777,0,0,0-.415-.13.777.777,0,0,0-.415.13l-3.224,1.853Zm-5,2.9,3.639-2.112-8.659-5-3.639,2.112Z" transform="translate(-129.782 862.154)" fill="#757575"/>
  </g>
</svg>
