<svg xmlns="http://www.w3.org/2000/svg" width="20" height="20" viewBox="0 0 20 20">
  <g id="Group_405" data-name="Group 405" transform="translate(-471 -439)">
    <rect id="Rectangle_186" data-name="Rectangle 186" width="20" height="20" transform="translate(471 439)" fill="rgba(255,255,255,0)"/>
    <path id="package_2_FILL0_wght200_GRAD0_opsz24" d="M168.423-817.491v-8.341l-7.3-4.227v7.953a.642.642,0,0,0,.086.324.744.744,0,0,0,.259.259Zm1.123,0,6.955-4.032a.743.743,0,0,0,.259-.259.642.642,0,0,0,.086-.324v-7.953l-7.3,4.227Zm-1.469,1.093-7.171-4.132a1.769,1.769,0,0,1-.666-.663A1.79,1.79,0,0,1,160-822.1v-8.108a1.789,1.789,0,0,1,.241-.907,1.768,1.768,0,0,1,.666-.663l7.171-4.132a1.8,1.8,0,0,1,.907-.244,1.8,1.8,0,0,1,.907.244l7.171,4.132a1.769,1.769,0,0,1,.666.663,1.789,1.789,0,0,1,.241.907v8.108a1.79,1.79,0,0,1-.241.907,1.769,1.769,0,0,1-.666.663l-7.171,4.132a1.794,1.794,0,0,1-.907.244A1.794,1.794,0,0,1,168.078-816.4Zm5.076-12.816,3.048-1.754-6.87-3.976a.648.648,0,0,0-.346-.108.648.648,0,0,0-.346.108l-2.687,1.544Zm-4.168,2.417,3.032-1.76-7.216-4.171-3.032,1.76Z" transform="translate(312.218 1275.154)" fill="#faf9f6"/>
  </g>
</svg>
