<svg xmlns="http://www.w3.org/2000/svg" width="14" height="14" viewBox="0 0 14 14">
  <path id="outbound_FILL1_wght300_GRAD0_opsz24" d="M104.717-849.946l3.942-3.941v1.92h1.105v-3.795h-3.795v1.105h1.9l-3.924,3.924ZM107-846a6.823,6.823,0,0,1-2.73-.551,7.1,7.1,0,0,1-2.223-1.5,7.069,7.069,0,0,1-1.5-2.223A6.813,6.813,0,0,1,100-853a6.825,6.825,0,0,1,.551-2.73,7.085,7.085,0,0,1,1.5-2.224,7.1,7.1,0,0,1,2.222-1.5A6.819,6.819,0,0,1,107-860a6.823,6.823,0,0,1,2.73.551,7.083,7.083,0,0,1,2.223,1.5,7.058,7.058,0,0,1,1.5,2.223A6.807,6.807,0,0,1,114-853a6.818,6.818,0,0,1-.551,2.73,7.085,7.085,0,0,1-1.5,2.224,7.081,7.081,0,0,1-2.222,1.5A6.8,6.8,0,0,1,107-846Z" transform="translate(-100.001 859.999)" fill="#fbfbfc"/>
</svg>
