<svg xmlns="http://www.w3.org/2000/svg" width="15" height="15" viewBox="0 0 15 15">
  <path id="check_circle_FILL1_wght300_GRAD0_opsz24" d="M106.381-849.141l5.308-5.308-.832-.832-4.476,4.476-2.25-2.25-.832.832ZM107.5-845a7.3,7.3,0,0,1-2.925-.591,7.574,7.574,0,0,1-2.382-1.6,7.572,7.572,0,0,1-1.6-2.381A7.3,7.3,0,0,1,100-852.5a7.305,7.305,0,0,1,.591-2.925,7.579,7.579,0,0,1,1.6-2.382,7.573,7.573,0,0,1,2.381-1.6A7.3,7.3,0,0,1,107.5-860a7.306,7.306,0,0,1,2.925.591,7.578,7.578,0,0,1,2.382,1.6,7.574,7.574,0,0,1,1.6,2.381A7.3,7.3,0,0,1,115-852.5a7.305,7.305,0,0,1-.591,2.925,7.575,7.575,0,0,1-1.6,2.382,7.571,7.571,0,0,1-2.381,1.6A7.3,7.3,0,0,1,107.5-845Z" transform="translate(-100.001 859.999)" fill="#fbfbfc"/>
</svg>
