<svg xmlns="http://www.w3.org/2000/svg" width="12" height="12" viewBox="0 0 12 12">
  <path id="language_FILL0_wght300_GRAD0_opsz24" d="M106-848a5.809,5.809,0,0,1-2.329-.473,6.085,6.085,0,0,1-1.91-1.288,6.084,6.084,0,0,1-1.288-1.91A5.808,5.808,0,0,1,100-854a5.8,5.8,0,0,1,.473-2.334,6.1,6.1,0,0,1,1.288-1.905,6.086,6.086,0,0,1,1.91-1.288A5.809,5.809,0,0,1,106-860a5.8,5.8,0,0,1,2.334.473,6.1,6.1,0,0,1,1.905,1.288,6.1,6.1,0,0,1,1.288,1.905A5.8,5.8,0,0,1,112-854a5.808,5.808,0,0,1-.473,2.329,6.084,6.084,0,0,1-1.288,1.91,6.1,6.1,0,0,1-1.905,1.288A5.8,5.8,0,0,1,106-848Zm0-.961a8.64,8.64,0,0,0,.814-1.294,7.382,7.382,0,0,0,.538-1.426h-2.7a8.061,8.061,0,0,0,.544,1.45A7.406,7.406,0,0,0,106-848.96Zm-1.223-.174a6.851,6.851,0,0,1-.652-1.185,7.755,7.755,0,0,1-.449-1.361h-2.143a4.951,4.951,0,0,0,1.342,1.653A4.509,4.509,0,0,0,104.778-849.133Zm2.446,0a4.509,4.509,0,0,0,1.9-.893,4.951,4.951,0,0,0,1.342-1.653h-2.143a9.92,9.92,0,0,1-.48,1.367A8.216,8.216,0,0,1,107.224-849.133Zm-6.087-3.493h2.348q-.06-.352-.086-.69t-.027-.682q0-.344.027-.682t.086-.69h-2.348a5,5,0,0,0-.14.669,5.07,5.07,0,0,0-.049.7,5.07,5.07,0,0,0,.049.7A5,5,0,0,0,101.137-852.627Zm3.3,0h3.138q.06-.352.086-.684t.027-.688q0-.356-.027-.688t-.086-.684h-3.138q-.06.352-.086.684t-.027.688q0,.356.027.688T104.432-852.627Zm4.086,0h2.348a5,5,0,0,0,.14-.669,5.071,5.071,0,0,0,.049-.7,5.071,5.071,0,0,0-.049-.7,5,5,0,0,0-.14-.669h-2.348q.059.352.086.69t.027.682q0,.344-.027.682T108.518-852.627Zm-.192-3.692h2.143a4.939,4.939,0,0,0-1.333-1.653,4.652,4.652,0,0,0-1.911-.9,7.85,7.85,0,0,1,.646,1.206A8.688,8.688,0,0,1,108.326-856.319Zm-3.677,0h2.7a8.116,8.116,0,0,0-.553-1.459,7.374,7.374,0,0,0-.8-1.26,7.374,7.374,0,0,0-.8,1.26A8.115,8.115,0,0,0,104.649-856.319Zm-3.115,0h2.143a8.689,8.689,0,0,1,.455-1.346,7.851,7.851,0,0,1,.646-1.206,4.608,4.608,0,0,0-1.914.9A5.005,5.005,0,0,0,101.534-856.319Z" transform="translate(-100.001 859.999)" fill="#8b8c8f"/>
</svg>
