<svg xmlns="http://www.w3.org/2000/svg" width="12" height="9.474" viewBox="0 0 12 9.474">
  <path id="credit_card_FILL0_wght300_GRAD0_opsz24" d="M112-778.857v7.19a1.1,1.1,0,0,1-.332.81,1.1,1.1,0,0,1-.81.332h-9.717a1.1,1.1,0,0,1-.81-.332,1.1,1.1,0,0,1-.332-.81v-7.19a1.1,1.1,0,0,1,.332-.81,1.1,1.1,0,0,1,.81-.332h9.717a1.1,1.1,0,0,1,.81.332A1.1,1.1,0,0,1,112-778.857Zm-11.053,1.324h10.105v-1.324a.186.186,0,0,0-.061-.134.186.186,0,0,0-.134-.061h-9.717a.186.186,0,0,0-.134.061.186.186,0,0,0-.061.134Zm0,2.016v3.85a.186.186,0,0,0,.061.134.186.186,0,0,0,.134.061h9.717a.186.186,0,0,0,.134-.061.186.186,0,0,0,.061-.134v-3.85Zm0,4.044v0Z" transform="translate(-100.001 779.999)" fill="#8b8c8f"/>
</svg>
