<svg xmlns="http://www.w3.org/2000/svg" width="11.997" height="12" viewBox="0 0 11.997 12">
  <path id="sell_FILL0_wght300_GRAD0_opsz24" d="M107.209-848.271a.919.919,0,0,1-.676.272.917.917,0,0,1-.676-.272l-5.562-5.562a1.025,1.025,0,0,1-.216-.316.94.94,0,0,1-.078-.382v-4.519a.912.912,0,0,1,.28-.668.912.912,0,0,1,.668-.28h4.519a.945.945,0,0,1,.375.076.993.993,0,0,1,.311.206l5.562,5.572a.936.936,0,0,1,.281.68.905.905,0,0,1-.269.674Zm-.679-.666,4.522-4.519-5.582-5.594h-4.522v4.519Zm-4-7.743a.764.764,0,0,0,.56-.23.76.76,0,0,0,.231-.559.763.763,0,0,0-.23-.56.76.76,0,0,0-.559-.231.764.764,0,0,0-.56.23.76.76,0,0,0-.231.559.764.764,0,0,0,.23.56A.76.76,0,0,0,102.529-856.681ZM100.949-859.051Z" transform="translate(-100.001 859.999)" fill="#8b8c8f"/>
</svg>
