<svg xmlns="http://www.w3.org/2000/svg" width="26.182" height="16" viewBox="0 0 26.182 16">
  <path id="manage_search_FILL0_wght200_GRAD0_opsz24" d="M120-664.056v-1.455h13.9v1.455Zm0-6.965v-1.455h6.489v1.455Zm0-6.965v-1.455h6.489v1.455ZM145.152-664l-5.656-5.572a6.327,6.327,0,0,1-1.713.913,5.705,5.705,0,0,1-1.9.323,5.744,5.744,0,0,1-4.176-1.694,5.576,5.576,0,0,1-1.726-4.138,5.573,5.573,0,0,1,1.728-4.138,5.754,5.754,0,0,1,4.18-1.694,5.732,5.732,0,0,1,4.174,1.694,5.567,5.567,0,0,1,1.722,4.125,5.7,5.7,0,0,1-.323,1.9,5.563,5.563,0,0,1-.941,1.685l5.656,5.572Zm-9.264-5.79a4.331,4.331,0,0,0,3.15-1.273,4.184,4.184,0,0,0,1.3-3.1,4.184,4.184,0,0,0-1.3-3.1,4.331,4.331,0,0,0-3.15-1.273,4.331,4.331,0,0,0-3.15,1.273,4.184,4.184,0,0,0-1.3,3.1,4.184,4.184,0,0,0,1.3,3.1A4.331,4.331,0,0,0,135.888-669.79Z" transform="translate(-120 680)" fill="#faf9f6"/>
</svg>
