<svg xmlns="http://www.w3.org/2000/svg" width="7.037" height="8.913" viewBox="0 0 7.037 8.913">
  <path id="hourglass_empty_FILL0_wght300_GRAD0_opsz24" d="M181.6-851.79h3.843V-853.2a1.883,1.883,0,0,0-.56-1.37,1.839,1.839,0,0,0-1.361-.569,1.839,1.839,0,0,0-1.361.569,1.883,1.883,0,0,0-.56,1.37Zm1.922-4.159a1.839,1.839,0,0,0,1.361-.569,1.883,1.883,0,0,0,.56-1.37V-859.3H181.6v1.407a1.883,1.883,0,0,0,.56,1.37A1.839,1.839,0,0,0,183.519-855.948ZM180-851.086v-.7h.893V-853.2a2.543,2.543,0,0,1,.433-1.442,2.259,2.259,0,0,1,1.149-.9,2.286,2.286,0,0,1-1.149-.906,2.532,2.532,0,0,1-.433-1.44V-859.3H180v-.7h7.037v.7h-.893v1.407a2.532,2.532,0,0,1-.434,1.44,2.286,2.286,0,0,1-1.149.906,2.259,2.259,0,0,1,1.149.9,2.543,2.543,0,0,1,.434,1.442v1.407h.893v.7Z" transform="translate(-180.001 859.999)" fill="#757575"/>
</svg>
