<svg xmlns="http://www.w3.org/2000/svg" width="9.474" height="12" viewBox="0 0 9.474 12">
  <path id="hourglass_empty_FILL0_wght300_GRAD0_opsz24" d="M182.151-848.946h5.174v-1.895a2.535,2.535,0,0,0-.754-1.845,2.476,2.476,0,0,0-1.833-.766,2.476,2.476,0,0,0-1.833.766,2.536,2.536,0,0,0-.754,1.845Zm2.587-5.6a2.475,2.475,0,0,0,1.833-.766,2.535,2.535,0,0,0,.754-1.845v-1.895h-5.174v1.895a2.535,2.535,0,0,0,.754,1.845A2.475,2.475,0,0,0,184.738-854.546ZM180-848v-.947h1.2v-1.895a3.424,3.424,0,0,1,.584-1.942A3.041,3.041,0,0,1,183.334-854a3.078,3.078,0,0,1-1.547-1.219,3.409,3.409,0,0,1-.584-1.938v-1.895H180V-860h9.474v.947h-1.2v1.895a3.409,3.409,0,0,1-.584,1.938A3.078,3.078,0,0,1,186.142-854a3.04,3.04,0,0,1,1.547,1.216,3.423,3.423,0,0,1,.584,1.942v1.895h1.2V-848Z" transform="translate(-180.001 859.999)" fill="#898a8d"/>
</svg>
