<svg xmlns="http://www.w3.org/2000/svg" width="14" height="14" viewBox="0 0 14 14">
  <path id="info_FILL0_wght300_GRAD0_opsz24" d="M106.448-849.5h1.105v-4.237h-1.105ZM107-855a.576.576,0,0,0,.424-.171.576.576,0,0,0,.171-.424.576.576,0,0,0-.171-.424.576.576,0,0,0-.424-.171.576.576,0,0,0-.424.171.576.576,0,0,0-.171.424.576.576,0,0,0,.171.424A.576.576,0,0,0,107-855Zm0,9a6.818,6.818,0,0,1-2.73-.551,7.071,7.071,0,0,1-2.223-1.5,7.068,7.068,0,0,1-1.5-2.222A6.812,6.812,0,0,1,100-853a6.819,6.819,0,0,1,.551-2.73,7.071,7.071,0,0,1,1.5-2.223,7.067,7.067,0,0,1,2.222-1.5A6.812,6.812,0,0,1,107-860a6.819,6.819,0,0,1,2.73.551,7.071,7.071,0,0,1,2.223,1.5,7.068,7.068,0,0,1,1.5,2.222A6.812,6.812,0,0,1,114-853a6.819,6.819,0,0,1-.551,2.73,7.07,7.07,0,0,1-1.5,2.223,7.067,7.067,0,0,1-2.222,1.5A6.812,6.812,0,0,1,107-846Zm0-1.105a5.689,5.689,0,0,0,4.182-1.713A5.689,5.689,0,0,0,112.9-853a5.689,5.689,0,0,0-1.713-4.182A5.689,5.689,0,0,0,107-858.894a5.689,5.689,0,0,0-4.182,1.713A5.689,5.689,0,0,0,101.106-853a5.689,5.689,0,0,0,1.713,4.182A5.689,5.689,0,0,0,107-847.1ZM107-853Z" transform="translate(-100.001 859.999)" fill="#8b8c8f"/>
</svg>
