<svg xmlns="http://www.w3.org/2000/svg" width="24" height="24" viewBox="0 0 24 24">
  <path id="info_FILL1_wght300_GRAD0_opsz24" d="M111.054-842h1.895v-7.263h-1.895Zm.947-9.425a.987.987,0,0,0,.727-.293.987.987,0,0,0,.293-.727.987.987,0,0,0-.293-.727.987.987,0,0,0-.727-.293.987.987,0,0,0-.727.293.987.987,0,0,0-.293.727.987.987,0,0,0,.293.727A.987.987,0,0,0,112-851.424ZM112-836a11.69,11.69,0,0,1-4.68-.945,12.122,12.122,0,0,1-3.811-2.565,12.116,12.116,0,0,1-2.566-3.809A11.678,11.678,0,0,1,100-848a11.69,11.69,0,0,1,.945-4.68,12.121,12.121,0,0,1,2.565-3.811,12.116,12.116,0,0,1,3.809-2.566A11.679,11.679,0,0,1,112-860a11.69,11.69,0,0,1,4.68.945,12.122,12.122,0,0,1,3.811,2.565,12.116,12.116,0,0,1,2.566,3.809A11.679,11.679,0,0,1,124-848a11.69,11.69,0,0,1-.945,4.68,12.122,12.122,0,0,1-2.565,3.811,12.116,12.116,0,0,1-3.809,2.566A11.678,11.678,0,0,1,112-836Z" transform="translate(-100.001 859.999)"/>
</svg>
