<svg xmlns="http://www.w3.org/2000/svg" width="22.667" height="21.333" viewBox="0 0 22.667 21.333">
  <path id="table_chart_FILL0_wght200_GRAD0_opsz24" d="M180.513-778.667H162.154a2.086,2.086,0,0,1-1.537-.617A2.086,2.086,0,0,1,160-780.82v-17.026a2.086,2.086,0,0,1,.617-1.537,2.086,2.086,0,0,1,1.537-.617h18.359a2.086,2.086,0,0,1,1.537.617,2.086,2.086,0,0,1,.617,1.537v17.026a2.086,2.086,0,0,1-.617,1.537A2.086,2.086,0,0,1,180.513-778.667ZM161.333-794h20v-3.846a.784.784,0,0,0-.256-.564.784.784,0,0,0-.564-.256H162.154a.784.784,0,0,0-.564.256.784.784,0,0,0-.256.564Zm4.513,1.333h-4.513v11.846a.784.784,0,0,0,.256.564.784.784,0,0,0,.564.256h3.692Zm10.974,0V-780h3.692a.784.784,0,0,0,.564-.256.784.784,0,0,0,.256-.564v-11.846Zm-1.333,0h.581V-780h-.581Z" transform="translate(-160 800)" fill="#e77687"/>
</svg>
