<svg xmlns="http://www.w3.org/2000/svg" width="18" height="18" viewBox="0 0 18 18">
  <g id="Group_499" data-name="Group 499" transform="translate(-394 -499)">
    <g id="Group_498" data-name="Group 498" transform="translate(0 -8)">
      <rect id="Rectangle_202" data-name="Rectangle 202" width="18" height="18" transform="translate(394 507)" fill="rgba(255,255,255,0)"/>
      <path id="language_FILL0_wght300_GRAD0_opsz24" d="M108-844a7.745,7.745,0,0,1-3.105-.631,8.113,8.113,0,0,1-2.547-1.717,8.113,8.113,0,0,1-1.717-2.547A7.745,7.745,0,0,1,100-852a7.731,7.731,0,0,1,.631-3.112,8.135,8.135,0,0,1,1.717-2.54,8.114,8.114,0,0,1,2.547-1.717A7.745,7.745,0,0,1,108-860a7.731,7.731,0,0,1,3.112.631,8.133,8.133,0,0,1,2.54,1.717,8.135,8.135,0,0,1,1.717,2.54A7.731,7.731,0,0,1,116-852a7.745,7.745,0,0,1-.631,3.105,8.113,8.113,0,0,1-1.717,2.547,8.134,8.134,0,0,1-2.54,1.717A7.731,7.731,0,0,1,108-844Zm0-1.281A11.519,11.519,0,0,0,109.086-847a9.843,9.843,0,0,0,.717-1.9h-3.6a10.748,10.748,0,0,0,.726,1.934A9.874,9.874,0,0,0,108-845.28Zm-1.631-.232a9.133,9.133,0,0,1-.87-1.58,10.339,10.339,0,0,1-.6-1.815h-2.857a6.6,6.6,0,0,0,1.789,2.2A6.012,6.012,0,0,0,106.37-845.512Zm3.261,0a6.012,6.012,0,0,0,2.536-1.19,6.6,6.6,0,0,0,1.789-2.2H111.1a13.229,13.229,0,0,1-.64,1.823A10.954,10.954,0,0,1,109.632-845.512Zm-8.117-4.658h3.13q-.079-.47-.115-.921t-.036-.909q0-.458.036-.909t.115-.921h-3.13a6.663,6.663,0,0,0-.186.892,6.761,6.761,0,0,0-.065.938,6.761,6.761,0,0,0,.065.938A6.661,6.661,0,0,0,101.515-850.169Zm4.394,0h4.185q.079-.47.115-.913t.036-.917q0-.475-.036-.917t-.115-.913h-4.185q-.079.47-.115.913t-.036.917q0,.475.036.917T105.909-850.169Zm5.448,0h3.13a6.662,6.662,0,0,0,.186-.892,6.762,6.762,0,0,0,.065-.938,6.762,6.762,0,0,0-.065-.938,6.665,6.665,0,0,0-.186-.892h-3.13q.079.47.115.921t.036.909q0,.458-.036.909T111.356-850.169Zm-.256-4.923h2.857a6.585,6.585,0,0,0-1.777-2.2,6.2,6.2,0,0,0-2.548-1.2,10.467,10.467,0,0,1,.862,1.608A11.581,11.581,0,0,1,111.1-855.092Zm-4.9,0h3.6a10.821,10.821,0,0,0-.738-1.946,9.831,9.831,0,0,0-1.065-1.68,9.832,9.832,0,0,0-1.065,1.68A10.821,10.821,0,0,0,106.2-855.092Zm-4.154,0H104.9a11.582,11.582,0,0,1,.607-1.794,10.467,10.467,0,0,1,.862-1.608,6.144,6.144,0,0,0-2.552,1.2A6.673,6.673,0,0,0,102.045-855.092Z" transform="translate(294.999 1367.999)" fill="#757575"/>
    </g>
  </g>
</svg>
