<svg id="Component_39_1" data-name="Component 39 – 1" xmlns="http://www.w3.org/2000/svg" width="161.991" height="36" viewBox="0 0 161.991 36">
  <g id="Group_822" data-name="Group 822">
    <g id="Group_821" data-name="Group 821" transform="translate(-8.193)">
      <g id="Group_820" data-name="Group 820" transform="translate(12.203 5.981)">
        <path id="Path_74" data-name="Path 74" d="M35.472,14.046a4.461,4.461,0,0,0,1.452-.2,1.4,1.4,0,0,0,1.058-1.4,1.033,1.033,0,0,0-.526-.926,5.653,5.653,0,0,0-1.649-.566l-1.279-.287a8.117,8.117,0,0,1-2.609-.928A2.948,2.948,0,0,1,30.7,7.122a3.5,3.5,0,0,1,1.182-2.7,5,5,0,0,1,3.469-1.074,5.264,5.264,0,0,1,3.26,1.014A3.612,3.612,0,0,1,40.024,7.3H37.6a1.735,1.735,0,0,0-.952-1.55,3.193,3.193,0,0,0-1.469-.3,2.739,2.739,0,0,0-1.559.394,1.255,1.255,0,0,0-.582,1.1,1.041,1.041,0,0,0,.574.968,7.033,7.033,0,0,0,1.576.5l2.083.5a5.378,5.378,0,0,1,2.068.877,2.959,2.959,0,0,1,1.082,2.47,3.482,3.482,0,0,1-1.268,2.753,5.314,5.314,0,0,1-3.58,1.094,5.812,5.812,0,0,1-3.716-1.079A3.584,3.584,0,0,1,30.5,12.061h2.412a2.5,2.5,0,0,0,.451,1.238,2.6,2.6,0,0,0,2.108.746" transform="translate(6.1 0.67)" fill="#f2f2f2"/>
        <path id="Path_75" data-name="Path 75" d="M45.911,13.946c-.023.026-.076.109-.164.246a1.665,1.665,0,0,1-.311.361,3.274,3.274,0,0,1-1.062.672,3.6,3.6,0,0,1-1.2.181A2.68,2.68,0,0,1,40.5,13.978a5.461,5.461,0,0,1-.385-2.321V6.268h2.4v5.389a2.826,2.826,0,0,0,.18,1.148,1.25,1.25,0,0,0,1.255.68,1.642,1.642,0,0,0,1.642-.967,3.522,3.522,0,0,0,.229-1.387V6.268h2.371v8.941H45.911Z" transform="translate(8.022 1.254)" fill="#f2f2f2"/>
        <path id="Path_76" data-name="Path 76" d="M56.218,7.26a4.8,4.8,0,0,1,1.084,3.4,5.386,5.386,0,0,1-1.062,3.6A3.44,3.44,0,0,1,53.5,15.5a2.858,2.858,0,0,1-1.772-.534,3.429,3.429,0,0,1-.755-.862v4.66H48.664V6.3H50.9V7.621a3.756,3.756,0,0,1,.8-.919,2.949,2.949,0,0,1,1.854-.6A3.517,3.517,0,0,1,56.218,7.26M54.89,10.771a3.518,3.518,0,0,0-.472-1.829,1.641,1.641,0,0,0-1.53-.8,1.742,1.742,0,0,0-1.747,1.206,4.571,4.571,0,0,0-.246,1.625,2.589,2.589,0,0,0,.828,2.19,1.889,1.889,0,0,0,1.165.37,1.687,1.687,0,0,0,1.488-.755,3.519,3.519,0,0,0,.514-2.01" transform="translate(9.732 1.221)" fill="#f2f2f2"/>
        <path id="Path_77" data-name="Path 77" d="M64.769,7.26a4.8,4.8,0,0,1,1.084,3.4,5.386,5.386,0,0,1-1.062,3.6,3.44,3.44,0,0,1-2.736,1.24,2.858,2.858,0,0,1-1.772-.534,3.429,3.429,0,0,1-.755-.862v4.66H57.215V6.3h2.239V7.621a3.756,3.756,0,0,1,.8-.919,2.949,2.949,0,0,1,1.854-.6A3.517,3.517,0,0,1,64.769,7.26m-1.328,3.511a3.518,3.518,0,0,0-.472-1.829,1.641,1.641,0,0,0-1.53-.8,1.742,1.742,0,0,0-1.747,1.206,4.571,4.571,0,0,0-.246,1.625,2.589,2.589,0,0,0,.828,2.19,1.889,1.889,0,0,0,1.165.37,1.687,1.687,0,0,0,1.488-.755,3.519,3.519,0,0,0,.514-2.01" transform="translate(11.443 1.221)" fill="#f2f2f2"/>
        <path id="Path_78" data-name="Path 78" d="M73.369,7.447A5.217,5.217,0,0,1,74.5,10.8a5.181,5.181,0,0,1-1.132,3.367,4.92,4.92,0,0,1-6.874,0A5.182,5.182,0,0,1,65.363,10.8,5.218,5.218,0,0,1,66.5,7.447a4.873,4.873,0,0,1,6.874,0m-3.445.558a1.868,1.868,0,0,0-1.579.726,3.364,3.364,0,0,0-.553,2.071,3.387,3.387,0,0,0,.553,2.076,2.069,2.069,0,0,0,3.154,0,3.4,3.4,0,0,0,.551-2.076A3.372,3.372,0,0,0,71.5,8.731a1.854,1.854,0,0,0-1.574-.726" transform="translate(13.072 1.206)" fill="#f2f2f2"/>
        <path id="Path_79" data-name="Path 79" d="M78.872,8.46a1.937,1.937,0,0,0-1.895.919,3.578,3.578,0,0,0-.271,1.591v4.273H74.352V6.3h2.232V7.861a4.945,4.945,0,0,1,.943-1.223,2.57,2.57,0,0,1,1.706-.55,1.006,1.006,0,0,1,.112,0l.2.012V8.5c-.149-.016-.28-.026-.395-.032s-.206-.008-.278-.008" transform="translate(14.87 1.218)" fill="#f2f2f2"/>
        <path id="Path_80" data-name="Path 80" d="M84.067,13.946v1.747l-1.108.041A2.976,2.976,0,0,1,80.7,15.16a1.717,1.717,0,0,1-.394-1.24v-5.5H79.055V6.752H80.3V4.258h2.314V6.752h1.452V8.417H82.615v4.724a1.07,1.07,0,0,0,.139.685,1.537,1.537,0,0,0,.853.136c.072,0,.146,0,.226,0s.158-.007.234-.013" transform="translate(15.811 0.852)" fill="#f2f2f2"/>
        <path id="Path_81" data-name="Path 81" d="M97.144,4.609a4.276,4.276,0,0,1,1.386,2.74H96.939A3.318,3.318,0,0,0,95.879,5.5a3.315,3.315,0,0,0-2.227-.68,3.541,3.541,0,0,0-2.824,1.252,5.787,5.787,0,0,0-1.075,3.839,5.644,5.644,0,0,0,.971,3.436,3.367,3.367,0,0,0,2.9,1.318,3.042,3.042,0,0,0,2.7-1.386,5.327,5.327,0,0,0,.734-1.92h1.591a5.47,5.47,0,0,1-1.394,3.191,4.936,4.936,0,0,1-3.828,1.55,5.011,5.011,0,0,1-3.486-1.272q-1.858-1.683-1.858-5.2a6.7,6.7,0,0,1,1.394-4.375A5.071,5.071,0,0,1,93.633,3.4a4.845,4.845,0,0,1,3.511,1.206" transform="translate(17.616 0.681)" fill="#f2f2f2"/>
        <path id="Path_82" data-name="Path 82" d="M103.987,6.673a3.329,3.329,0,0,1,1.328,1.135,3.954,3.954,0,0,1,.587,1.55,10.147,10.147,0,0,1,.131,1.937H99.642a3.8,3.8,0,0,0,.628,2.152,2.088,2.088,0,0,0,1.816.809,2.335,2.335,0,0,0,1.83-.766,2.613,2.613,0,0,0,.542-1.031h1.452a3.057,3.057,0,0,1-.382,1.079,3.89,3.89,0,0,1-.722.972,3.418,3.418,0,0,1-1.654.887,4.977,4.977,0,0,1-1.2.131,3.672,3.672,0,0,1-2.764-1.193,4.667,4.667,0,0,1-1.133-3.343A5.078,5.078,0,0,1,99.2,7.554a3.758,3.758,0,0,1,2.984-1.32,3.97,3.97,0,0,1,1.8.439m.528,3.449a3.85,3.85,0,0,0-.415-1.534,2.12,2.12,0,0,0-2.009-1.067,2.221,2.221,0,0,0-1.692.733,2.785,2.785,0,0,0-.724,1.867Z" transform="translate(19.611 1.247)" fill="#f2f2f2"/>
        <path id="Path_83" data-name="Path 83" d="M106.263,6.431h1.4V7.678a3.93,3.93,0,0,1,1.321-1.108,3.534,3.534,0,0,1,1.55-.336,2.554,2.554,0,0,1,2.526,1.3,4.639,4.639,0,0,1,.361,2.042v5.635h-1.5V9.679a3.019,3.019,0,0,0-.238-1.3,1.444,1.444,0,0,0-1.428-.821,2.916,2.916,0,0,0-.862.107,2.222,2.222,0,0,0-1.066.722,2.2,2.2,0,0,0-.481.9,6.175,6.175,0,0,0-.11,1.325v4.6h-1.476Z" transform="translate(21.253 1.247)" fill="#f2f2f2"/>
        <path id="Path_84" data-name="Path 84" d="M114.493,4.354h1.493V6.807h1.4V8.013h-1.4v5.734a.622.622,0,0,0,.312.616,1.327,1.327,0,0,0,.574.09c.072,0,.148,0,.23-.006s.178-.013.287-.028v1.174a3.292,3.292,0,0,1-.528.107,5.133,5.133,0,0,1-.6.032,1.6,1.6,0,0,1-1.4-.528,2.356,2.356,0,0,1-.37-1.374V8.013H113.3V6.807h1.189Z" transform="translate(22.661 0.871)" fill="#f2f2f2"/>
        <path id="Path_85" data-name="Path 85" d="M117.973,6.431h1.4V7.949a3.351,3.351,0,0,1,.845-1.079,2.194,2.194,0,0,1,1.55-.636c.028,0,.074,0,.139.008s.179.016.337.032V7.834a2.025,2.025,0,0,0-.242-.032c-.074-.006-.155-.008-.242-.008a2.109,2.109,0,0,0-1.715.718,2.5,2.5,0,0,0-.6,1.652v5.053h-1.476Z" transform="translate(23.595 1.247)" fill="#f2f2f2"/>
        <path id="Path_86" data-name="Path 86" d="M127.378,9.9a.8.8,0,0,0,.68-.426,1.3,1.3,0,0,0,.1-.568,1.2,1.2,0,0,0-.536-1.1,2.847,2.847,0,0,0-1.534-.343,1.945,1.945,0,0,0-1.639.628,2.085,2.085,0,0,0-.352,1.03h-1.378a2.544,2.544,0,0,1,1.052-2.266,4.3,4.3,0,0,1,2.348-.638,4.765,4.765,0,0,1,2.515.592,2,2,0,0,1,.959,1.837v5.062a.647.647,0,0,0,.094.368.457.457,0,0,0,.4.139c.065,0,.139,0,.221-.011s.17-.022.263-.038V15.26a4.254,4.254,0,0,1-.526.122,3.743,3.743,0,0,1-.492.025,1.217,1.217,0,0,1-1.108-.542,2.085,2.085,0,0,1-.253-.811,3.758,3.758,0,0,1-1.3,1.025,4.021,4.021,0,0,1-1.862.436,2.767,2.767,0,0,1-2-.743,2.452,2.452,0,0,1-.776-1.855,2.388,2.388,0,0,1,.763-1.892,3.627,3.627,0,0,1,2-.827Zm-3.109,3.989a1.74,1.74,0,0,0,1.108.368,3.38,3.38,0,0,0,1.51-.36,2.03,2.03,0,0,0,1.23-1.958V10.754a2.559,2.559,0,0,1-.7.288,6.2,6.2,0,0,1-.834.164l-.893.114a3.457,3.457,0,0,0-1.207.336,1.306,1.306,0,0,0-.685,1.228,1.212,1.212,0,0,0,.468,1.007" transform="translate(24.452 1.244)" fill="#f2f2f2"/>
        <rect id="Rectangle_694" data-name="Rectangle 694" width="1.476" height="12.05" transform="translate(156.505 4.412)" fill="#f2f2f2"/>
      </g>
      <path id="Path_105" data-name="Path 105" d="M16.275,5.366s-3.737,5.879-2.786,12.111c.72,4.739,2.5,7.631.514,13.158a16.286,16.286,0,0,0,3.27-9.677c-.015-3.326-3.161-10.287-1-15.593m6.554,13.6,2.682,2.017-2.519,4.364-3.065-1.311a6.512,6.512,0,0,1-.828.568c-.032.019-.066.039-.1.056.093-.437.173-.887.237-1.353a6.822,6.822,0,0,0-1.462-11.5,13.892,13.892,0,0,1,.039-4.183h.007l.414,3.338a4.827,4.827,0,0,1,.885.414,6.94,6.94,0,0,1,.806.556l3.109-1.287,2.519,4.342-2.7,2.039c.031.185.054.348.066.5v.458c0,.151,0,.3-.012.458a2.56,2.56,0,0,1-.075.524M12.671,27.4l-.3-2.383a4.777,4.777,0,0,1-.862-.414,6.476,6.476,0,0,1-.829-.568L7.618,25.346,5.1,20.982l2.683-2.017a2.526,2.526,0,0,1-.076-.524c-.012-.153-.012-.307-.012-.458v-.458c.012-.154.034-.317.066-.5l-2.7-2.039,2.519-4.342,3.109,1.287a6.94,6.94,0,0,1,.806-.556c.063-.039.129-.078.195-.112-.1.458-.19.929-.263,1.413A6.821,6.821,0,0,0,12.676,24.14a10.9,10.9,0,0,1-.005,3.261M28.732,5.353c-.486.041-.974.062-1.45.062A15.209,15.209,0,0,1,16.53,1.226L15.305,0,14.079,1.226A15.209,15.209,0,0,1,3.327,5.414c-.476,0-.964-.021-1.45-.062L0,5.194V17.75A17.6,17.6,0,0,0,8.338,32.774a45.707,45.707,0,0,0,6.35,2.99l.618.235.617-.235a45.707,45.707,0,0,0,6.35-2.99A17.6,17.6,0,0,0,30.61,17.75V5.194Zm-.226,12.308a15.784,15.784,0,0,1-7.477,13.473,42.978,42.978,0,0,1-5.724,2.731,42.948,42.948,0,0,1-5.725-2.731A15.785,15.785,0,0,1,2.1,17.661V7.768A21.175,21.175,0,0,0,15.305,3.2a21.172,21.172,0,0,0,13.2,4.567Z" transform="translate(8.193)" fill="#f2f2f2"/>
    </g>
  </g>
</svg>
