<svg xmlns="http://www.w3.org/2000/svg" width="100.309" height="13" viewBox="0 0 100.309 13">
  <path id="Path_67" data-name="Path 67" d="M49.492,440.426h-6.3v-4.835H41.287v12.278h1.906v-5.818h6.3v5.818h1.886V435.591H49.492m-18.587-.04c-.692-.02-2.1-.02-3.34-.02v12.328h1.926v-4.674c.481,0,1.475-.04,2.277-.06a3.835,3.835,0,0,0,4.032-3.962c.03-3.812-4.193-3.611-4.9-3.611Zm-.1,6H29.531v-4.444h1.083c.5,0,3.461-.221,3.551,2.076.12,2.257-2.217,2.367-3.36,2.367ZM13.13,435.531l.02,12.328h7.734v-1.6H15.076v-4.183h4.113c0-.351-.02-.863,0-1.535H15.076v-3.36h5.808c-.02-.973,0-1.645,0-1.645H13.13ZM1.886,438.54c0-2.016,2.668-2.1,4.243-.8.542-1.555.582-1.665.582-1.665-4.594-2.207-6.691.712-6.691,2.578,0,4.464,6.329,3.511,5.417,6.65-.321,1.144-2.357,1.8-4.7.371A17.959,17.959,0,0,1,0,447.317c3.1,1.625,7.122.843,7.252-2.508.181-4.213-5.367-3.912-5.367-6.269Zm81.29.451c-.281-3.661-3.832-3.38-4.614-3.421-.652-.02-2.036-.04-3.23-.04v12.308h1.926v-5.176c.652,0,.863,0,1.846-.04l3.511,5.216h2.337L81.069,442.3A3.019,3.019,0,0,0,83.176,438.992Zm-4.725,2.227c-.431,0-.762,0-1.194-.02v-4.163h1.013c.481,0,3.009-.151,3.23,1.866C81.772,441.289,78.973,441.218,78.451,441.218Zm17.434-5.667H93.658l-4.032,12.328h1.906c.6-2.227.8-2.859.8-2.859l4.985-.02c.582,1.645,1.013,2.9,1.013,2.9h1.976Zm-3.11,8.055,1.946-6.089h.02l2.036,6.069ZM63.335,435.2a6.5,6.5,0,1,0,6.48,6.5A6.275,6.275,0,0,0,63.335,435.2Zm0,11.225c-2.879,0-4.5-2.1-4.5-4.724a4.509,4.509,0,1,1,4.5,4.724Z" transform="translate(0 -435.2)" fill="#fff"/>
</svg>
