<svg xmlns="http://www.w3.org/2000/svg" width="6.667" height="10.37" viewBox="0 0 6.667 10.37">
  <path id="Size_32_Theme_Regular" data-name="Size=32, Theme=Regular" d="M8.2,2A1.2,1.2,0,0,0,7,3.2v7.963a1.2,1.2,0,0,0,1.2,1.2h4.259a1.2,1.2,0,0,0,1.2-1.2V3.2a1.2,1.2,0,0,0-1.2-1.2ZM7.741,3.2A.463.463,0,0,1,8.2,2.741h4.259a.463.463,0,0,1,.463.463v7.963a.463.463,0,0,1-.463.463H8.2a.463.463,0,0,1-.463-.463Zm1.852,6.944a.37.37,0,1,0,0,.741h1.481a.37.37,0,0,0,0-.741Z" transform="translate(-7 -2)" fill="#757575"/>
</svg>
