<svg xmlns="http://www.w3.org/2000/svg" width="19.559" height="20" viewBox="0 0 19.559 20">
  <path id="notifications_active_FILL0_wght300_GRAD0_opsz24" d="M104.617-852.274a9.347,9.347,0,0,1,.979-4.254,9.865,9.865,0,0,1,2.642-3.293l.964,1.216a8.217,8.217,0,0,0-2.207,2.761,7.892,7.892,0,0,0-.815,3.569Zm18,0a7.923,7.923,0,0,0-.815-3.574,8.2,8.2,0,0,0-2.207-2.767l.964-1.206a9.865,9.865,0,0,1,2.642,3.293,9.347,9.347,0,0,1,.979,4.255h-1.563Zm-16.032,9.349v-1.563h1.884v-7.776a5.768,5.768,0,0,1,1.3-3.717,5.75,5.75,0,0,1,3.332-2.066v-.649a1.256,1.256,0,0,1,.381-.922A1.256,1.256,0,0,1,114.4-860a1.256,1.256,0,0,1,.922.381,1.256,1.256,0,0,1,.381.922v.649a5.75,5.75,0,0,1,3.332,2.066,5.768,5.768,0,0,1,1.3,3.717v7.776h1.884v1.563ZM114.4-850.56Zm0,10.561a1.814,1.814,0,0,1-1.332-.552,1.815,1.815,0,0,1-.552-1.332h3.768a1.815,1.815,0,0,1-.552,1.332A1.814,1.814,0,0,1,114.4-840Zm-4.369-4.489h8.738v-7.776a4.209,4.209,0,0,0-1.28-3.089,4.209,4.209,0,0,0-3.089-1.28,4.209,4.209,0,0,0-3.089,1.28,4.209,4.209,0,0,0-1.28,3.089Z" transform="translate(-104.617 859.999)" fill="#fbfbfc"/>
</svg>
