<svg xmlns="http://www.w3.org/2000/svg" width="16" height="16" viewBox="0 0 16 16">
  <path id="error_FILL1_wght300_GRAD0_opsz24" d="M108-848.015a.658.658,0,0,0,.485-.2.658.658,0,0,0,.2-.484.658.658,0,0,0-.2-.485.658.658,0,0,0-.485-.2.658.658,0,0,0-.485.2.658.658,0,0,0-.2.485.658.658,0,0,0,.2.484A.658.658,0,0,0,108-848.015Zm-.632-3.077h1.263v-5.053h-1.263ZM108-844a7.793,7.793,0,0,1-3.12-.63,8.081,8.081,0,0,1-2.541-1.71,8.077,8.077,0,0,1-1.71-2.539A7.786,7.786,0,0,1,100-852a7.793,7.793,0,0,1,.63-3.12,8.081,8.081,0,0,1,1.71-2.541,8.074,8.074,0,0,1,2.54-1.711A7.787,7.787,0,0,1,108-860a7.793,7.793,0,0,1,3.12.63,8.081,8.081,0,0,1,2.541,1.71,8.077,8.077,0,0,1,1.71,2.539A7.786,7.786,0,0,1,116-852a7.793,7.793,0,0,1-.63,3.12,8.08,8.08,0,0,1-1.71,2.541,8.077,8.077,0,0,1-2.54,1.711A7.787,7.787,0,0,1,108-844Z" transform="translate(-100.001 859.999)" fill="#faf9f6"/>
</svg>
