<svg xmlns="http://www.w3.org/2000/svg" width="12.75" height="12.75" viewBox="0 0 12.75 12.75">
  <path id="error_FILL0_wght300_GRAD0_opsz24" d="M106.376-850.449a.524.524,0,0,0,.386-.156.524.524,0,0,0,.156-.386.524.524,0,0,0-.156-.386.524.524,0,0,0-.386-.156.524.524,0,0,0-.386.156.524.524,0,0,0-.156.386.524.524,0,0,0,.156.386A.524.524,0,0,0,106.376-850.449Zm-.5-2.452h1.007v-4.026h-1.007Zm.5,5.652a6.209,6.209,0,0,1-2.486-.5,6.44,6.44,0,0,1-2.025-1.362,6.437,6.437,0,0,1-1.363-2.024,6.2,6.2,0,0,1-.5-2.486,6.21,6.21,0,0,1,.5-2.486,6.44,6.44,0,0,1,1.362-2.025,6.436,6.436,0,0,1,2.024-1.363,6.2,6.2,0,0,1,2.486-.5,6.21,6.21,0,0,1,2.486.5,6.44,6.44,0,0,1,2.025,1.362,6.437,6.437,0,0,1,1.363,2.024,6.2,6.2,0,0,1,.5,2.486,6.21,6.21,0,0,1-.5,2.486,6.439,6.439,0,0,1-1.362,2.025,6.436,6.436,0,0,1-2.024,1.363A6.2,6.2,0,0,1,106.377-847.249Zm0-1.007a5.181,5.181,0,0,0,3.808-1.56,5.181,5.181,0,0,0,1.56-3.808,5.181,5.181,0,0,0-1.56-3.808,5.181,5.181,0,0,0-3.808-1.56,5.181,5.181,0,0,0-3.808,1.56,5.181,5.181,0,0,0-1.56,3.808,5.181,5.181,0,0,0,1.56,3.808A5.181,5.181,0,0,0,106.376-848.256ZM106.376-853.624Z" transform="translate(-100.001 859.999)" fill="#757575"/>
</svg>
