<svg xmlns="http://www.w3.org/2000/svg" width="20.056" height="20.033" viewBox="0 0 20.056 20.033">
  <g id="Group_405" data-name="Group 405" transform="translate(-471 -439)">
    <rect id="Rectangle_186" data-name="Rectangle 186" width="20" height="20" transform="translate(471 439)" fill="#26262b"/>
    <path id="data_usage_FILL0_wght200_GRAD0_opsz24" d="M130.028-818a9.73,9.73,0,0,1-3.906-.792,10.157,10.157,0,0,1-3.184-2.146,10.156,10.156,0,0,1-2.146-3.184,9.73,9.73,0,0,1-.792-3.906,9.689,9.689,0,0,1,2.548-6.7A9.793,9.793,0,0,1,128.914-838v1.371a8.418,8.418,0,0,0-5.4,2.88,8.417,8.417,0,0,0-2.141,5.721,8.354,8.354,0,0,0,2.517,6.14,8.354,8.354,0,0,0,6.14,2.517,8.813,8.813,0,0,0,3.856-.87,8.2,8.2,0,0,0,3.044-2.5l1.183.729a10.065,10.065,0,0,1-3.57,2.963A10.011,10.011,0,0,1,130.028-818Zm9.209-6.072-1.183-.686a6.329,6.329,0,0,0,.494-1.6,10.155,10.155,0,0,0,.136-1.67,8.457,8.457,0,0,0-2.141-5.732,8.31,8.31,0,0,0-5.4-2.869V-838a9.354,9.354,0,0,1,6.377,3.229,9.868,9.868,0,0,1,2.537,6.743,10.981,10.981,0,0,1-.187,2.023A7.8,7.8,0,0,1,139.237-824.072Z" transform="translate(351 1277.033)" fill="#faf9f6"/>
  </g>
</svg>
