<svg xmlns="http://www.w3.org/2000/svg" width="13.539" height="12.46" viewBox="0 0 13.539 12.46">
  <path id="alarm_on_FILL0_wght300_GRAD0_opsz24" d="M81.607-835.546l3.551-3.551-.716-.716-2.835,2.835-1.429-1.429-.716.716Zm.7,3.546a5.527,5.527,0,0,1-2.22-.448,5.761,5.761,0,0,1-1.805-1.218,5.763,5.763,0,0,1-1.218-1.805,5.527,5.527,0,0,1-.448-2.22,5.527,5.527,0,0,1,.448-2.22,5.761,5.761,0,0,1,1.218-1.8,5.762,5.762,0,0,1,1.805-1.218,5.527,5.527,0,0,1,2.22-.448,5.527,5.527,0,0,1,2.22.448,5.762,5.762,0,0,1,1.805,1.218,5.761,5.761,0,0,1,1.218,1.8,5.527,5.527,0,0,1,.448,2.22,5.527,5.527,0,0,1-.448,2.22,5.763,5.763,0,0,1-1.218,1.805,5.761,5.761,0,0,1-1.805,1.218A5.527,5.527,0,0,1,82.309-832ZM82.309-837.691Zm-4.182-6.769.706.705-2.588,2.588-.706-.705Zm8.363,0,2.588,2.588-.706.705-2.588-2.588ZM82.309-833a4.519,4.519,0,0,0,3.319-1.367A4.519,4.519,0,0,0,87-837.691a4.519,4.519,0,0,0-1.367-3.319,4.519,4.519,0,0,0-3.319-1.367,4.519,4.519,0,0,0-3.319,1.367,4.519,4.519,0,0,0-1.367,3.319,4.519,4.519,0,0,0,1.367,3.319A4.519,4.519,0,0,0,82.309-833Z" transform="translate(-75.54 844.46)" fill="#757575"/>
</svg>
