<svg xmlns="http://www.w3.org/2000/svg" width="17.385" height="16" viewBox="0 0 17.385 16">
  <path id="alarm_on_FILL1_wght300_GRAD0_opsz24" d="M83.33-833.013l4.56-4.56-.919-.919-3.64,3.64-1.835-1.835-.919.919Zm.9,4.553a7.1,7.1,0,0,1-2.85-.575,7.4,7.4,0,0,1-2.318-1.564,7.4,7.4,0,0,1-1.564-2.318,7.1,7.1,0,0,1-.575-2.85,7.1,7.1,0,0,1,.575-2.85,7.4,7.4,0,0,1,1.564-2.318,7.4,7.4,0,0,1,2.318-1.564,7.1,7.1,0,0,1,2.85-.575,7.1,7.1,0,0,1,2.85.575,7.4,7.4,0,0,1,2.318,1.564,7.4,7.4,0,0,1,1.564,2.318,7.1,7.1,0,0,1,.575,2.85,7.1,7.1,0,0,1-.575,2.85A7.4,7.4,0,0,1,89.4-830.6a7.4,7.4,0,0,1-2.318,1.564A7.1,7.1,0,0,1,84.233-828.46Zm-5.37-16,.906.906-3.323,3.323-.906-.906Zm10.739,0,3.323,3.323-.906.906L88.7-843.554Z" transform="translate(-75.54 844.46)" fill="#faf9f6"/>
</svg>
