<svg xmlns="http://www.w3.org/2000/svg" width="18" height="18" viewBox="0 0 18 18">
  <g id="Group_499" data-name="Group 499" transform="translate(-394 -499)">
    <g id="Group_498" data-name="Group 498" transform="translate(0 -8)">
      <rect id="Rectangle_202" data-name="Rectangle 202" width="18" height="18" transform="translate(394 507)" fill="rgba(255,255,255,0)"/>
      <path id="sell_FILL0_wght300_GRAD0_opsz24" d="M109.729-844.172a1.24,1.24,0,0,1-.912.367,1.238,1.238,0,0,1-.912-.367l-7.507-7.506a1.383,1.383,0,0,1-.291-.427,1.269,1.269,0,0,1-.106-.515v-6.1a1.23,1.23,0,0,1,.378-.9,1.231,1.231,0,0,1,.9-.378h6.1a1.276,1.276,0,0,1,.506.1,1.34,1.34,0,0,1,.419.277l7.507,7.52a1.263,1.263,0,0,1,.38.918,1.222,1.222,0,0,1-.363.91Zm-.916-.9,6.1-6.1-7.532-7.549h-6.1v6.1Zm-5.4-10.449a1.03,1.03,0,0,0,.756-.311,1.026,1.026,0,0,0,.312-.755,1.03,1.03,0,0,0-.311-.756,1.026,1.026,0,0,0-.755-.312,1.03,1.03,0,0,0-.756.311,1.026,1.026,0,0,0-.312.755,1.03,1.03,0,0,0,.311.755A1.026,1.026,0,0,0,103.412-855.521ZM101.281-858.72Z" transform="translate(294.904 1367.902)" fill="#e8e8e8"/>
    </g>
  </g>
</svg>
