<svg xmlns="http://www.w3.org/2000/svg" width="16" height="16" viewBox="0 0 16 16">
  <path id="stars_FILL1_wght200_GRAD0_opsz24" d="M124.889-827.316,128-829.686l3.111,2.369-1.162-3.853,3.094-2.191h-3.791L128-837.4l-1.251,4.041h-3.791l3.094,2.191ZM128-824a7.8,7.8,0,0,1-3.12-.63,8.083,8.083,0,0,1-2.541-1.709,8.076,8.076,0,0,1-1.711-2.539A7.781,7.781,0,0,1,120-832a7.8,7.8,0,0,1,.63-3.12,8.085,8.085,0,0,1,1.709-2.541,8.077,8.077,0,0,1,2.539-1.711A7.782,7.782,0,0,1,128-840a7.8,7.8,0,0,1,3.12.63,8.085,8.085,0,0,1,2.541,1.709,8.077,8.077,0,0,1,1.711,2.539A7.781,7.781,0,0,1,136-832a7.8,7.8,0,0,1-.63,3.12,8.084,8.084,0,0,1-1.709,2.542,8.076,8.076,0,0,1-2.539,1.711A7.781,7.781,0,0,1,128-824Z" transform="translate(-120 840)" fill="#faf9f6"/>
</svg>
