<svg id="Quick_Links" data-name="Quick Links" xmlns="http://www.w3.org/2000/svg" width="24" height="24" viewBox="0 0 24 24">
  <g id="Group_776" data-name="Group 776">
    <path id="Path_89" data-name="Path 89" d="M4.154,4.154h6.519v6.519H4.154Zm0,15.693V13.328h6.519v6.519H4.154M13.326,4.154h6.519v6.519H13.326Zm0,15.693V13.328h6.519v6.519H13.326M2.423,24A2.368,2.368,0,0,1,0,21.578V2.423A2.368,2.368,0,0,1,2.423,0H21.576A2.371,2.371,0,0,1,24,2.423V21.578A2.371,2.371,0,0,1,21.576,24Zm0-1.5H21.576a.994.994,0,0,0,.924-.922V2.423a.883.883,0,0,0-.289-.635.882.882,0,0,0-.635-.288H2.423a.882.882,0,0,0-.635.288.887.887,0,0,0-.288.635V21.578a.887.887,0,0,0,.288.635.882.882,0,0,0,.635.288" transform="translate(0 0)" fill="#f2f2f2"/>
  </g>
</svg>
