<svg xmlns="http://www.w3.org/2000/svg" width="13.846" height="14" viewBox="0 0 13.846 14">
  <path id="refresh_FILL1_wght200_GRAD0_opsz24" d="M210.077-746a6.757,6.757,0,0,1-4.966-2.034A6.751,6.751,0,0,1,203.077-753a6.762,6.762,0,0,1,2.034-4.966A6.752,6.752,0,0,1,210.077-760a6.873,6.873,0,0,1,3.338.847,6.7,6.7,0,0,1,2.508,2.364V-760h1v5.231h-5.231v-1h3.7a5.937,5.937,0,0,0-2.2-2.364,5.857,5.857,0,0,0-3.118-.867,5.786,5.786,0,0,0-4.25,1.75,5.786,5.786,0,0,0-1.75,4.25,5.786,5.786,0,0,0,1.75,4.25,5.786,5.786,0,0,0,4.25,1.75,5.862,5.862,0,0,0,3.475-1.1,5.809,5.809,0,0,0,2.175-2.9h1.062a6.782,6.782,0,0,1-2.513,3.623A6.857,6.857,0,0,1,210.077-746Z" transform="translate(-203.077 760)" fill="#fff"/>
</svg>
