<svg xmlns="http://www.w3.org/2000/svg" width="18" height="18" viewBox="0 0 18 18">
  <g id="Group_499" data-name="Group 499" transform="translate(-394 -499)">
    <g id="Group_498" data-name="Group 498" transform="translate(0 -8)">
      <rect id="Rectangle_202" data-name="Rectangle 202" width="18" height="18" transform="translate(394 507)" fill="rgba(255,255,255,0)"/>
      <path id="hourglass_empty_FILL0_wght300_GRAD0_opsz24" d="M182.867-845.262h6.9v-2.526a3.38,3.38,0,0,0-1.006-2.46,3.3,3.3,0,0,0-2.444-1.022,3.3,3.3,0,0,0-2.444,1.022,3.38,3.38,0,0,0-1.006,2.46Zm3.449-7.466a3.3,3.3,0,0,0,2.444-1.022,3.38,3.38,0,0,0,1.006-2.46v-2.526h-6.9v2.526a3.38,3.38,0,0,0,1.006,2.46A3.3,3.3,0,0,0,186.317-852.728ZM180-844v-1.263h1.6v-2.526a4.565,4.565,0,0,1,.778-2.589A4.056,4.056,0,0,1,184.445-852a4.1,4.1,0,0,1-2.062-1.626,4.546,4.546,0,0,1-.778-2.585v-2.526H180V-860h12.632v1.263h-1.6v2.526a4.546,4.546,0,0,1-.778,2.585A4.1,4.1,0,0,1,188.189-852a4.055,4.055,0,0,1,2.062,1.622,4.564,4.564,0,0,1,.778,2.589v2.526h1.6V-844Z" transform="translate(216.683 1367.999)" fill="#e8e8e8"/>
    </g>
  </g>
</svg>
