<svg xmlns="http://www.w3.org/2000/svg" width="10" height="10" viewBox="0 0 10 10">
  <path id="schedule_FILL0_wght300_GRAD0_opsz24" d="M106.829-852.616l.555-.555-1.988-1.988v-2.472h-.789v2.792ZM105-850a4.871,4.871,0,0,1-1.95-.394,5.05,5.05,0,0,1-1.588-1.069,5.047,5.047,0,0,1-1.069-1.587A4.866,4.866,0,0,1,100-855a4.871,4.871,0,0,1,.394-1.95,5.051,5.051,0,0,1,1.069-1.588,5.048,5.048,0,0,1,1.587-1.069A4.866,4.866,0,0,1,105-860a4.871,4.871,0,0,1,1.95.394,5.051,5.051,0,0,1,1.588,1.069,5.049,5.049,0,0,1,1.069,1.587A4.866,4.866,0,0,1,110-855a4.87,4.87,0,0,1-.394,1.95,5.051,5.051,0,0,1-1.069,1.588,5.048,5.048,0,0,1-1.587,1.069A4.866,4.866,0,0,1,105-850ZM105-855Zm0,4.211a4.059,4.059,0,0,0,2.98-1.23,4.059,4.059,0,0,0,1.23-2.98,4.059,4.059,0,0,0-1.23-2.98,4.059,4.059,0,0,0-2.98-1.23,4.059,4.059,0,0,0-2.98,1.23,4.059,4.059,0,0,0-1.23,2.98,4.059,4.059,0,0,0,1.23,2.98A4.059,4.059,0,0,0,105-850.789Z" transform="translate(-100.001 859.999)" fill="#979797"/>
</svg>
