<svg xmlns="http://www.w3.org/2000/svg" width="24.06" height="24" viewBox="0 0 24.06 24">
  <path id="data_usage_FILL1_wght400_GRAD0_opsz48" d="M93.03-854a11.64,11.64,0,0,1-4.662-.947,12.333,12.333,0,0,1-3.835-2.571,12.022,12.022,0,0,1-2.586-3.82A11.64,11.64,0,0,1,81-866a11.57,11.57,0,0,1,3.2-8.18,11.728,11.728,0,0,1,7.955-3.789v3.068a8.669,8.669,0,0,0-5.774,2.872A8.652,8.652,0,0,0,84.068-866a8.592,8.592,0,0,0,2.617,6.331,8.667,8.667,0,0,0,6.346,2.6,8.91,8.91,0,0,0,4.09-.977A9.489,9.489,0,0,0,100.4-860.8l2.647,1.534a12.209,12.209,0,0,1-4.376,3.88A11.941,11.941,0,0,1,93.03-854Zm10.887-6.887-2.647-1.474a11.011,11.011,0,0,0,.541-1.85,9.408,9.408,0,0,0,.18-1.82,8.738,8.738,0,0,0-2.3-6.045,8.442,8.442,0,0,0-5.729-2.857V-878a11.554,11.554,0,0,1,7.91,3.744,11.473,11.473,0,0,1,3.188,8.105,12.44,12.44,0,0,1-.286,2.662A13.624,13.624,0,0,1,103.917-860.887Z" transform="translate(-81 878)" fill="#8f8e8e"/>
</svg>
