<svg xmlns="http://www.w3.org/2000/svg" width="24" height="24" viewBox="0 0 24 24">
  <path id="box_FILL0_wght200_GRAD0_opsz24" d="M161.5-794.288v15.865a.9.9,0,0,0,.26.663.9.9,0,0,0,.663.26h19.154a.9.9,0,0,0,.663-.26.9.9,0,0,0,.26-.663v-15.865h-6v10.183l-4.5-2.25-4.5,2.25v-10.183ZM162.423-776a2.336,2.336,0,0,1-1.715-.708,2.336,2.336,0,0,1-.708-1.715V-794.77a2.4,2.4,0,0,1,.14-.825,2.277,2.277,0,0,1,.42-.712l2.337-2.807a2.077,2.077,0,0,1,.815-.662A2.49,2.49,0,0,1,164.76-800h14.423a2.588,2.588,0,0,1,1.063.224,2.054,2.054,0,0,1,.829.662l2.365,2.864a2.238,2.238,0,0,1,.42.727,2.529,2.529,0,0,1,.14.839v16.26a2.336,2.336,0,0,1-.708,1.715,2.336,2.336,0,0,1-1.715.708Zm-.352-19.788H181.9l-2-2.394a1.138,1.138,0,0,0-.332-.231.918.918,0,0,0-.389-.087H164.788a.918.918,0,0,0-.389.087,1.138,1.138,0,0,0-.332.231Zm9.929,1.5v6.231h0v-6.231Zm-10.5,0h0Z" transform="translate(-160 800)" fill="#5cb7ed"/>
</svg>
