<svg xmlns="http://www.w3.org/2000/svg" width="24" height="24" viewBox="0 0 24 24">
  <path id="box_FILL1_wght300_GRAD0_opsz48" d="M142.037-796a1.958,1.958,0,0,1-1.435-.6,1.958,1.958,0,0,1-.6-1.435v-17.272a2.046,2.046,0,0,1,.106-.652,2,2,0,0,1,.318-.591l2.039-2.655a1.94,1.94,0,0,1,.7-.577,2.009,2.009,0,0,1,.914-.216h15.8a2.05,2.05,0,0,1,.921.216,1.925,1.925,0,0,1,.705.577l2.074,2.682a1.975,1.975,0,0,1,.318.6,2.109,2.109,0,0,1,.106.659v17.232a1.959,1.959,0,0,1-.6,1.435,1.958,1.958,0,0,1-1.435.6Zm.138-20.259h19.6l-1.6-1.99a.537.537,0,0,0-.156-.109.433.433,0,0,0-.183-.041H144.111a.479.479,0,0,0-.19.041.377.377,0,0,0-.149.109Zm14.767,1.6H147.06v11L152-806.129l4.941,2.471Z" transform="translate(-140.001 819.999)" fill="#ececec"/>
</svg>
