<svg xmlns="http://www.w3.org/2000/svg" width="18" height="18" viewBox="0 0 18 18">
  <g id="Group_498" data-name="Group 498" transform="translate(-394 -507)">
    <rect id="Rectangle_202" data-name="Rectangle 202" width="18" height="18" transform="translate(394 507)" fill="rgba(255,255,255,0)"/>
    <g id="Group_679" data-name="Group 679" transform="translate(1.8 55)">
      <path id="calendar_month_FILL0_wght400_GRAD0_opsz48" d="M121.2-864a1.151,1.151,0,0,1-.84-.36,1.151,1.151,0,0,1-.36-.84v-12.4a1.151,1.151,0,0,1,.36-.84,1.151,1.151,0,0,1,.84-.36h1.3V-880h1.3v1.2h6.8V-880h1.3v1.2h1.3a1.151,1.151,0,0,1,.84.36,1.151,1.151,0,0,1,.36.84v12.4a1.151,1.151,0,0,1-.36.84,1.151,1.151,0,0,1-.84.36Zm0-1.2h12v-8.6h-12Zm0-9.8h12v-2.6h-12Zm0,0v0Zm6,4.6a.774.774,0,0,1-.57-.23.774.774,0,0,1-.23-.57.774.774,0,0,1,.23-.57.774.774,0,0,1,.57-.23.774.774,0,0,1,.57.23.774.774,0,0,1,.23.57.774.774,0,0,1-.23.57A.774.774,0,0,1,127.2-870.4Zm-3.2,0a.774.774,0,0,1-.57-.23.774.774,0,0,1-.23-.57.774.774,0,0,1,.23-.57A.774.774,0,0,1,124-872a.774.774,0,0,1,.57.23.774.774,0,0,1,.23.57.774.774,0,0,1-.23.57A.774.774,0,0,1,124-870.4Zm6.4,0a.774.774,0,0,1-.57-.23.774.774,0,0,1-.23-.57.774.774,0,0,1,.23-.57.774.774,0,0,1,.57-.23.774.774,0,0,1,.57.23.774.774,0,0,1,.23.57.774.774,0,0,1-.23.57A.774.774,0,0,1,130.4-870.4Zm-3.2,3.2a.774.774,0,0,1-.57-.23.774.774,0,0,1-.23-.57.774.774,0,0,1,.23-.57.774.774,0,0,1,.57-.23.774.774,0,0,1,.57.23.774.774,0,0,1,.23.57.774.774,0,0,1-.23.57A.774.774,0,0,1,127.2-867.2Zm-3.2,0a.774.774,0,0,1-.57-.23.774.774,0,0,1-.23-.57.774.774,0,0,1,.23-.57.774.774,0,0,1,.57-.23.774.774,0,0,1,.57.23.774.774,0,0,1,.23.57.774.774,0,0,1-.23.57A.774.774,0,0,1,124-867.2Zm6.4,0a.774.774,0,0,1-.57-.23.774.774,0,0,1-.23-.57.774.774,0,0,1,.23-.57.774.774,0,0,1,.57-.23.774.774,0,0,1,.57.23.774.774,0,0,1,.23.57.774.774,0,0,1-.23.57A.774.774,0,0,1,130.4-867.2Z" transform="translate(274 1333)" fill="#faf9f6"/>
    </g>
  </g>
</svg>
